<?xml version="1.0" encoding="UTF-8"?>
<svg width="280px" height="244px" viewBox="0 0 280 244" version="1.1" xmlns="http://www.w3.org/2000/svg" xmlns:xlink="http://www.w3.org/1999/xlink">
    <!-- Generator: Sketch 52.2 (67145) - http://www.bohemiancoding.com/sketch -->
    <title>メインビジュアルlogo</title>
    <desc>Created with Sketch.</desc>
    <defs>
        <polygon id="path-1" points="0.1609 19 6.3169 19 6.3169 0.7754 0.1609 0.7754 0.1609 19"></polygon>
        <polygon id="path-3" points="15.2278 0.537 0.147813476 0.537 0.147813476 23.4267 15.2278 23.4267 15.2278 0.537"></polygon>
        <polygon id="path-5" points="0 244.463 279.373 244.463 279.373 1 0 1"></polygon>
    </defs>
    <g id="Page-1" stroke="none" stroke-width="1" fill="none" fill-rule="evenodd">
        <g id="1024" transform="translate(-372.000000, -72.000000)">
            <g id="メインビジュアル">
                <g id="メインビジュアル要素" transform="translate(372.000000, 71.000000)">
                    <g id="メインビジュアルlogo">
                        <path d="M73.9231,215.7764 C74.4131,215.1404 74.8261,214.5044 75.1621,213.8684 C75.4991,213.2324 75.7271,212.6304 75.8461,212.0624 C75.9651,211.4944 75.9681,210.9784 75.8551,210.5134 C75.7401,210.0494 75.4921,209.6694 75.1081,209.3734 C74.7081,209.0654 74.2731,208.9194 73.8021,208.9344 C73.3321,208.9484 72.8431,209.0854 72.3381,209.3434 C71.8321,209.6024 71.3191,209.9794 70.7981,210.4724 C70.2761,210.9664 69.7651,211.5394 69.2641,212.1894 C68.7741,212.8254 68.3611,213.4554 68.0221,214.0784 C67.6841,214.7004 67.4511,215.2944 67.3251,215.8554 C67.1981,216.4174 67.1881,216.9284 67.2941,217.3874 C67.4001,217.8454 67.6531,218.2284 68.0521,218.5354 C68.4521,218.8434 68.8871,218.9904 69.3581,218.9754 C69.8281,218.9614 70.3191,218.8274 70.8331,218.5734 C71.3461,218.3214 71.8631,217.9534 72.3861,217.4734 C72.9101,216.9924 73.4221,216.4274 73.9231,215.7764 L73.9231,215.7764 Z M71.2261,222.2164 C70.6231,223.0004 70.0021,223.6764 69.3641,224.2454 C68.7261,224.8144 68.0701,225.2284 67.3991,225.4894 C66.7271,225.7494 66.0321,225.8264 65.3131,225.7204 C64.5941,225.6144 63.8571,225.2714 63.1031,224.6904 C62.3781,224.1314 61.8291,223.4454 61.4571,222.6284 C61.0851,221.8114 60.9221,220.9734 60.9701,220.1154 L62.7101,219.8294 C62.6531,220.5164 62.7421,221.1734 62.9771,221.8014 C63.2121,222.4304 63.6101,222.9614 64.1721,223.3934 C64.6601,223.7694 65.1431,223.9754 65.6211,224.0134 C66.0981,224.0514 66.5681,223.9534 67.0291,223.7214 C67.4921,223.4874 67.9531,223.1474 68.4151,222.7024 C68.8761,222.2554 69.3401,221.7304 69.8071,221.1234 L71.2071,219.3044 L71.1631,219.2694 C70.4731,219.7984 69.7501,220.1254 68.9941,220.2504 C68.2381,220.3754 67.4841,220.1474 66.7291,219.5674 C66.1671,219.1334 65.7861,218.6044 65.5841,217.9784 C65.3831,217.3524 65.3371,216.6634 65.4451,215.9104 C65.5531,215.1574 65.8061,214.3624 66.2041,213.5264 C66.6001,212.6894 67.1291,211.8414 67.7891,210.9834 C68.4491,210.1264 69.1271,209.3994 69.8221,208.8024 C70.5161,208.2064 71.2041,207.7644 71.8851,207.4764 C72.5671,207.1884 73.2361,207.0684 73.8951,207.1154 C74.5531,207.1624 75.1631,207.4024 75.7261,207.8354 C76.3911,208.3474 76.8001,208.9864 76.9541,209.7524 C77.1061,210.5184 77.0071,211.2964 76.6581,212.0874 L76.7241,212.1384 L78.1591,210.2744 L79.5791,211.3674 L71.2261,222.2164 L71.2261,222.2164 Z" id="Fill-1" fill="#FFFFFF"></path>
                        <path d="M90.3577,218.3892 C91.0927,218.1782 91.7627,218.2402 92.3667,218.5752 C92.4977,218.6472 92.5907,218.7092 92.6477,218.7622 L91.6747,220.4002 C91.6187,220.3482 91.5647,220.3022 91.5127,220.2622 C91.4597,220.2222 91.3917,220.1792 91.3107,220.1342 C90.9027,219.9082 90.4627,219.8462 89.9907,219.9462 C89.5177,220.0482 89.0537,220.2602 88.5977,220.5832 C88.1407,220.9062 87.7037,221.3202 87.2847,221.8252 C86.8667,222.3292 86.5037,222.8592 86.1957,223.4142 L82.7617,229.6102 L81.1457,228.7152 L86.1807,219.6282 C86.3257,219.3672 86.4777,219.0832 86.6367,218.7762 C86.7957,218.4702 86.9507,218.1722 87.1017,217.8822 C87.2517,217.5912 87.3877,217.3252 87.5117,217.0842 C87.6337,216.8432 87.7237,216.6522 87.7797,216.5122 L89.3477,217.3812 C89.2077,217.7102 89.0177,218.1112 88.7757,218.5862 C88.5337,219.0592 88.2687,219.5582 87.9797,220.0802 L88.0277,220.1082 C88.8447,219.1732 89.6207,218.6002 90.3577,218.3892" id="Fill-3" fill="#FFFFFF"></path>
                        <path d="M103.4212,230.0474 C103.9182,228.7384 104.1132,227.6094 104.0112,226.6624 C103.9092,225.7154 103.4282,225.0794 102.5692,224.7524 C102.0602,224.5594 101.5772,224.5524 101.1192,224.7274 C100.6612,224.9024 100.2392,225.1724 99.8502,225.5344 C99.4632,225.8964 99.1242,226.3124 98.8362,226.7814 C98.5472,227.2514 98.3312,227.6784 98.1852,228.0614 L103.4212,230.0474 Z M97.6132,229.4914 C97.3412,230.2084 97.1532,230.8904 97.0482,231.5384 C96.9422,232.1874 96.9232,232.7794 96.9912,233.3144 C97.0592,233.8494 97.2252,234.3114 97.4892,234.7004 C97.7532,235.0904 98.1302,235.3784 98.6212,235.5644 C99.2532,235.8024 99.8342,235.8034 100.3662,235.5664 C100.8972,235.3284 101.3712,234.9794 101.7872,234.5184 L102.8082,235.7744 C102.1962,236.4404 101.4792,236.9224 100.6582,237.2194 C99.8362,237.5164 98.9452,237.4834 97.9852,237.1194 C96.5362,236.5694 95.6422,235.5324 95.3032,234.0064 C94.9632,232.4804 95.2002,230.6434 96.0142,228.4964 C96.3982,227.4844 96.8562,226.5894 97.3892,225.8134 C97.9212,225.0374 98.5002,224.4184 99.1232,223.9554 C99.7472,223.4934 100.4062,223.1994 101.1002,223.0724 C101.7942,222.9464 102.4902,223.0154 103.1862,223.2804 C103.9512,223.5704 104.5362,223.9824 104.9422,224.5144 C105.3472,225.0474 105.6062,225.6644 105.7182,226.3654 C105.8302,227.0674 105.8152,227.8294 105.6712,228.6544 C105.5282,229.4794 105.2912,230.3264 104.9612,231.1994 L104.6032,232.1424 L97.6132,229.4914 Z" id="Fill-5" fill="#FFFFFF"></path>
                        <path d="M119.5623,235.3691 L118.4643,235.1461 C118.0253,235.0571 117.5783,235.0091 117.1223,235.0031 C116.6663,234.9961 116.2463,235.0731 115.8613,235.2321 C115.4763,235.3921 115.1333,235.6511 114.8333,236.0091 C114.5313,236.3671 114.3153,236.8661 114.1853,237.5061 C113.9923,238.4571 114.0633,239.1851 114.3993,239.6921 C114.7343,240.1981 115.1483,240.5011 115.6423,240.6011 C116.1543,240.7051 116.6203,240.6391 117.0413,240.3991 C117.4603,240.1611 117.8243,239.8251 118.1303,239.3921 C118.4373,238.9591 118.6943,238.4691 118.9013,237.9201 C119.1073,237.3721 119.2653,236.8331 119.3733,236.3021 L119.5623,235.3691 Z M118.3773,242.3281 C118.3893,242.1781 118.4123,241.9921 118.4483,241.7711 C118.4833,241.5501 118.5213,241.3141 118.5623,241.0661 C118.6033,240.8161 118.6473,240.5781 118.6933,240.3491 C118.7403,240.1201 118.7803,239.9241 118.8133,239.7601 L118.7583,239.7481 C117.9073,241.5951 116.6133,242.3421 114.8753,241.9891 C114.4913,241.9101 114.1223,241.7591 113.7683,241.5351 C113.4133,241.3111 113.1133,241.0021 112.8703,240.6101 C112.6253,240.2171 112.4533,239.7491 112.3543,239.2051 C112.2553,238.6611 112.2783,238.0331 112.4233,237.3201 C112.6243,236.3321 112.9593,235.5711 113.4293,235.0391 C113.8993,234.5051 114.4353,234.1191 115.0363,233.8791 C115.6363,233.6401 116.2653,233.5241 116.9203,233.5331 C117.5763,233.5421 118.1873,233.6041 118.7543,233.7201 L119.8243,233.9371 L119.9693,233.2231 C120.2103,232.0341 120.1673,231.1201 119.8393,230.4821 C119.5123,229.8451 118.9733,229.4501 118.2233,229.2971 C117.7103,229.1931 117.2083,229.2341 116.7123,229.4191 C116.2183,229.6051 115.7723,229.8761 115.3763,230.2331 L114.6443,228.9131 C115.1873,228.3951 115.8313,228.0401 116.5753,227.8481 C117.3173,227.6571 118.0283,227.6291 118.7053,227.7661 C120.1323,228.0561 121.0533,228.7281 121.4673,229.7851 C121.8813,230.8411 121.9073,232.2641 121.5423,234.0571 L120.3953,239.7091 C120.3573,239.8911 120.3153,240.1211 120.2693,240.3971 C120.2233,240.6741 120.1753,240.9551 120.1263,241.2411 C120.0783,241.5261 120.0383,241.7941 120.0063,242.0441 C119.9743,242.2961 119.9533,242.4961 119.9423,242.6451 L118.3773,242.3281 Z" id="Fill-7" fill="#FFFFFF"></path>
                        <g id="Group-11" transform="translate(130.000000, 225.463000)">
                            <mask id="mask-2" fill="white">
                                <use xlink:href="#path-1"></use>
                            </mask>
                            <g id="Clip-10"></g>
                            <path d="M4.7879,18.9364 C4.4849,18.9934 4.1759,19.0124 3.8589,18.9924 C2.8899,18.9334 2.2249,18.5564 1.8659,17.8614 C1.5059,17.1664 1.3599,16.2604 1.4279,15.1414 L1.9769,6.1154 L0.1609,6.0044 L0.2519,4.4954 L2.0409,4.6034 L2.2729,0.7754 L4.0899,0.8854 L3.8569,4.7154 L6.3169,4.8644 L6.2249,6.3734 L3.7659,6.2244 L3.2369,14.9154 C3.1859,15.7534 3.2699,16.3714 3.4889,16.7684 C3.7069,17.1644 4.0589,17.3784 4.5439,17.4074 C4.7119,17.4174 4.8909,17.4054 5.0799,17.3694 C5.2679,17.3344 5.4299,17.2924 5.5639,17.2454 L5.5579,18.7314 C5.3469,18.8114 5.0899,18.8804 4.7879,18.9364" id="Fill-9" fill="#FFFFFF" mask="url(#mask-2)"></path>
                        </g>
                        <path d="M158.6043,222.5498 C158.3133,222.5018 158.0383,222.4978 157.7803,222.5378 C157.4113,222.5958 157.1173,222.7368 156.8973,222.9608 C156.6783,223.1848 156.5173,223.4568 156.4163,223.7738 C156.3153,224.0928 156.2673,224.4458 156.2713,224.8318 C156.2763,225.2188 156.3113,225.6148 156.3743,226.0208 L156.8333,228.9248 L159.1563,228.5578 L159.3923,230.0508 L157.0693,230.4178 L159.0003,242.6428 L157.1753,242.9308 L155.2443,230.7068 L153.3913,230.9988 L153.1543,229.5058 L155.0073,229.2128 L154.5493,226.3088 C154.3283,224.9078 154.4333,223.7238 154.8663,222.7578 C155.2983,221.7928 156.1243,221.2128 157.3423,221.0208 C157.7663,220.9528 158.1533,220.9488 158.5023,221.0068 L158.6043,222.5498 Z" id="Fill-12" fill="#FFFFFF"></path>
                        <path d="M175.3128,231.4497 C175.0708,230.6677 174.7878,229.9557 174.4618,229.3157 C174.1368,228.6757 173.7828,228.1467 173.3998,227.7287 C173.0168,227.3117 172.6068,227.0137 172.1708,226.8377 C171.7358,226.6607 171.2768,226.6457 170.7948,226.7947 C170.3138,226.9437 169.9388,227.2167 169.6698,227.6117 C169.4018,228.0067 169.2308,228.4827 169.1598,229.0407 C169.0878,229.5987 169.0998,230.2337 169.1918,230.9457 C169.2858,231.6577 169.4538,232.4057 169.6958,233.1877 C169.9378,233.9707 170.2178,234.6737 170.5388,235.2957 C170.8578,235.9177 171.2058,236.4447 171.5838,236.8737 C171.9598,237.3027 172.3698,237.5977 172.8118,237.7637 C173.2528,237.9287 173.7158,237.9367 174.1968,237.7877 C174.6778,237.6397 175.0548,237.3727 175.3268,236.9877 C175.5978,236.6007 175.7678,236.1247 175.8358,235.5567 C175.9048,234.9897 175.8958,234.3597 175.8078,233.6657 C175.7208,232.9707 175.5548,232.2327 175.3128,231.4497 M177.1438,230.9267 C177.4698,231.9797 177.6578,232.9667 177.7088,233.8887 C177.7598,234.8117 177.6848,235.6447 177.4858,236.3897 C177.2868,237.1367 176.9498,237.7667 176.4758,238.2847 C175.9998,238.8027 175.4068,239.1727 174.6938,239.3937 C173.9798,239.6147 173.2858,239.6427 172.6098,239.4807 C171.9348,239.3187 171.2998,238.9877 170.7058,238.4877 C170.1108,237.9877 169.5748,237.3437 169.0958,236.5537 C168.6168,235.7637 168.2148,234.8437 167.8888,233.7907 C167.5628,232.7387 167.3678,231.7437 167.3028,230.8067 C167.2378,229.8697 167.3048,229.0287 167.5038,228.2827 C167.7028,227.5367 168.0398,226.9047 168.5148,226.3867 C168.9888,225.8687 169.5918,225.4967 170.3238,225.2707 C171.0368,225.0497 171.7358,225.0197 172.4198,225.1787 C173.1048,225.3377 173.7388,225.6687 174.3258,226.1717 C174.9108,226.6747 175.4458,227.3297 175.9298,228.1377 C176.4148,228.9447 176.8178,229.8747 177.1438,230.9267" id="Fill-14" fill="#FFFFFF"></path>
                        <path d="M192.5481,223.9214 C192.1771,223.1914 191.7771,222.5384 191.3481,221.9624 C190.9191,221.3854 190.4801,220.9244 190.0321,220.5774 C189.5831,220.2324 189.1301,220.0084 188.6701,219.9074 C188.2111,219.8064 187.7571,219.8704 187.3071,220.0984 C186.8581,220.3274 186.5351,220.6594 186.3371,221.0934 C186.1391,221.5284 186.0521,222.0274 186.0761,222.5894 C186.1001,223.1514 186.2181,223.7754 186.4311,224.4614 C186.6431,225.1484 186.9361,225.8554 187.3071,226.5854 C187.6781,227.3164 188.0741,227.9614 188.4941,228.5204 C188.9141,229.0794 189.3461,229.5384 189.7911,229.8984 C190.2351,230.2574 190.6891,230.4804 191.1521,230.5684 C191.6161,230.6564 192.0731,230.5864 192.5221,230.3574 C192.9711,230.1294 193.2971,229.8024 193.4991,229.3764 C193.7011,228.9494 193.7881,228.4504 193.7591,227.8804 C193.7311,227.3094 193.6151,226.6904 193.4111,226.0204 C193.2071,225.3514 192.9191,224.6514 192.5481,223.9214 M194.2641,223.0954 C194.7631,224.0774 195.1161,225.0184 195.3221,225.9184 C195.5291,226.8194 195.5971,227.6534 195.5271,228.4214 C195.4571,229.1914 195.2321,229.8714 194.8521,230.4614 C194.4711,231.0524 193.9491,231.5174 193.2831,231.8564 C192.6171,232.1934 191.9381,232.3404 191.2451,232.2944 C190.5511,232.2504 189.8701,232.0314 189.1991,231.6384 C188.5291,231.2464 187.8911,230.7014 187.2851,230.0044 C186.6801,229.3074 186.1281,228.4684 185.6291,227.4854 C185.1291,226.5044 184.7681,225.5574 184.5451,224.6434 C184.3211,223.7314 184.2451,222.8914 184.3151,222.1224 C184.3851,221.3544 184.6111,220.6744 184.9901,220.0834 C185.3701,219.4924 185.9021,219.0234 186.5841,218.6764 C187.2491,218.3384 187.9331,218.1904 188.6341,218.2304 C189.3361,218.2724 190.0181,218.4904 190.6801,218.8864 C191.3421,219.2834 191.9811,219.8384 192.5941,220.5524 C193.2091,221.2654 193.7651,222.1134 194.2641,223.0954" id="Fill-16" fill="#FFFFFF"></path>
                        <path d="M208.2718,213.5981 C207.7798,212.9411 207.2728,212.3651 206.7508,211.8691 C206.2288,211.3731 205.7128,210.9961 205.2038,210.7361 C204.6948,210.4761 204.2008,210.3381 203.7228,210.3221 C203.2448,210.3071 202.8118,210.4451 202.4228,210.7361 C202.0198,211.0371 201.7618,211.4171 201.6488,211.8741 C201.5368,212.3311 201.5368,212.8381 201.6498,213.3941 C201.7638,213.9511 201.9878,214.5471 202.3228,215.1811 C202.6588,215.8161 203.0718,216.4631 203.5638,217.1201 C204.0448,217.7641 204.5398,218.3311 205.0488,218.8251 C205.5588,219.3181 206.0658,219.7021 206.5738,219.9751 C207.0808,220.2471 207.5698,220.3951 208.0408,220.4161 C208.5108,220.4361 208.9478,220.2961 209.3518,219.9941 C209.7548,219.6921 210.0128,219.3131 210.1258,218.8561 C210.2378,218.3991 210.2388,217.8851 210.1268,217.3151 C210.0158,216.7461 209.7988,216.1441 209.4768,215.5121 C209.1538,214.8781 208.7528,214.2411 208.2718,213.5981 L208.2718,213.5981 Z M212.4328,219.1581 L210.9398,217.1621 L210.8948,217.1961 C211.2188,218.0021 211.3388,218.7871 211.2558,219.5481 C211.1728,220.3101 210.7508,220.9761 209.9878,221.5471 C209.4198,221.9721 208.8078,222.1971 208.1498,222.2221 C207.4928,222.2471 206.8168,222.1071 206.1208,221.7991 C205.4248,221.4931 204.7278,221.0361 204.0278,220.4281 C203.3288,219.8211 202.6548,219.0831 202.0058,218.2161 C201.3578,217.3491 200.8388,216.5011 200.4528,215.6721 C200.0648,214.8431 199.8238,214.0611 199.7298,213.3281 C199.6358,212.5941 199.6998,211.9171 199.9228,211.2961 C200.1458,210.6741 200.5408,210.1511 201.1078,209.7261 C201.7808,209.2231 202.5028,209.0031 203.2728,209.0671 C204.0448,209.1321 204.7638,209.4391 205.4318,209.9881 L205.4768,209.9551 L199.7058,202.2431 L201.1858,201.1361 L213.8668,218.0841 L212.4328,219.1581 Z" id="Fill-18" fill="#FFFFFF"></path>
                        <path d="M69.3479,33.1475 C68.9809,32.5235 68.5689,32.0495 68.1129,31.7245 C67.6549,31.3995 67.1919,31.1945 66.7239,31.1075 C66.2559,31.0215 65.7909,31.0325 65.3319,31.1385 C64.8729,31.2455 64.4539,31.4115 64.0759,31.6335 L61.9279,32.8935 L65.8479,39.5695 L68.0989,38.2475 C68.5299,37.9945 68.9009,37.6885 69.2129,37.3305 C69.5249,36.9725 69.7459,36.5805 69.8789,36.1535 C70.0099,35.7265 70.0389,35.2615 69.9639,34.7585 C69.8889,34.2555 69.6839,33.7185 69.3479,33.1475 L69.3479,33.1475 Z M64.0099,25.1835 C63.6839,24.6285 63.3259,24.2155 62.9339,23.9455 C62.5419,23.6745 62.1409,23.5025 61.7279,23.4305 C61.3149,23.3585 60.9029,23.3785 60.4939,23.4915 C60.0849,23.6035 59.6889,23.7715 59.3099,23.9945 L57.3699,25.1335 L60.8499,31.0575 L62.8419,29.8875 C63.1869,29.6855 63.5019,29.4235 63.7889,29.1035 C64.0769,28.7845 64.2899,28.4245 64.4289,28.0295 C64.5669,27.6335 64.6109,27.1945 64.5589,26.7115 C64.5079,26.2295 64.3249,25.7195 64.0099,25.1835 L64.0099,25.1835 Z M65.9139,29.1965 C66.2819,29.0735 66.7119,29.0055 67.2049,28.9955 C67.6969,28.9845 68.2079,29.0735 68.7369,29.2605 C69.2649,29.4495 69.7919,29.7545 70.3179,30.1765 C70.8429,30.5985 71.3239,31.1805 71.7589,31.9205 C72.3169,32.8705 72.6269,33.7545 72.6909,34.5755 C72.7539,35.3965 72.6599,36.1475 72.4089,36.8295 C72.1569,37.5095 71.7889,38.1095 71.3009,38.6265 C70.8149,39.1445 70.2949,39.5655 69.7429,39.8905 L64.7879,42.7995 L54.0319,24.4855 L58.4299,21.9015 C58.9479,21.5985 59.5319,21.3405 60.1859,21.1315 C60.8409,20.9215 61.5089,20.8465 62.1949,20.9085 C62.8809,20.9695 63.5509,21.2035 64.2049,21.6065 C64.8609,22.0105 65.4509,22.6615 65.9769,23.5575 C66.3319,24.1615 66.5719,24.7285 66.6969,25.2565 C66.8229,25.7875 66.8679,26.2885 66.8329,26.7605 C66.7969,27.2345 66.6949,27.6705 66.5239,28.0725 C66.3529,28.4735 66.1399,28.8315 65.8849,29.1445 L65.9139,29.1965 Z" id="Fill-20" fill="#FFFFFF"></path>
                        <path d="M82.616,33.2647 L76.557,19.4767 L78.892,18.4517 L84.95,32.2397 L82.616,33.2647 Z M77.396,14.2257 C77.597,14.6847 77.62,15.1217 77.465,15.5387 C77.309,15.9557 77.031,16.2547 76.628,16.4307 C76.206,16.6167 75.795,16.6217 75.392,16.4507 C74.988,16.2787 74.685,15.9627 74.485,15.5047 C74.292,15.0657 74.266,14.6347 74.408,14.2117 C74.55,13.7887 74.831,13.4857 75.253,13.2997 C75.673,13.1157 76.089,13.1137 76.494,13.2947 C76.903,13.4757 77.203,13.7857 77.396,14.2257 L77.396,14.2257 Z" id="Fill-22" fill="#FFFFFF"></path>
                        <path d="M96.094,15.1865 C95.729,14.9055 95.314,14.7075 94.847,14.5945 C94.381,14.4835 93.88,14.5135 93.347,14.6845 C92.795,14.8635 92.402,15.2065 92.166,15.7125 C91.93,16.2195 91.919,16.8055 92.135,17.4715 C92.349,18.1385 92.691,18.5645 93.16,18.7485 C93.63,18.9335 94.291,19.0455 95.146,19.0855 C95.593,19.1095 96.049,19.1675 96.509,19.2605 C96.97,19.3545 97.413,19.5215 97.837,19.7625 C98.262,20.0025 98.645,20.3275 98.985,20.7315 C99.326,21.1365 99.601,21.6635 99.809,22.3095 C100.05,23.0515 100.151,23.7445 100.116,24.3855 C100.082,25.0275 99.93,25.6025 99.663,26.1085 C99.396,26.6155 99.027,27.0535 98.559,27.4255 C98.091,27.7975 97.542,28.0845 96.915,28.2875 C96.058,28.5635 95.219,28.6385 94.403,28.5135 C93.584,28.3885 92.844,28.1085 92.177,27.6705 L93.098,25.6405 C93.551,25.9355 94.043,26.1615 94.576,26.3145 C95.11,26.4685 95.699,26.4405 96.346,26.2325 C96.955,26.0365 97.365,25.6625 97.576,25.1105 C97.787,24.5595 97.78,23.9305 97.552,23.2275 C97.423,22.8275 97.246,22.5065 97.021,22.2625 C96.795,22.0205 96.536,21.8365 96.243,21.7095 C95.95,21.5835 95.625,21.5005 95.264,21.4585 C94.905,21.4165 94.521,21.3895 94.117,21.3725 C93.712,21.3555 93.302,21.3075 92.89,21.2315 C92.476,21.1555 92.075,21.0045 91.689,20.7835 C91.302,20.5615 90.951,20.2545 90.636,19.8625 C90.321,19.4705 90.058,18.9505 89.85,18.3035 C89.647,17.6745 89.572,17.0695 89.625,16.4845 C89.678,15.9005 89.835,15.3605 90.096,14.8665 C90.358,14.3735 90.712,13.9425 91.162,13.5775 C91.612,13.2115 92.131,12.9335 92.721,12.7435 C93.578,12.4675 94.363,12.3765 95.077,12.4725 C95.791,12.5685 96.424,12.7905 96.977,13.1355 L96.094,15.1865 Z" id="Fill-24" fill="#FFFFFF"></path>
                        <path d="M114.0506,23.624 C113.7146,23.774 113.3706,23.889 113.0186,23.962 C111.8826,24.2 110.9996,24.007 110.3686,23.384 C109.7376,22.76 109.2866,21.802 109.0156,20.51 L107.1336,11.524 L105.2546,11.917 L104.8306,9.892 L106.6796,9.504 L105.8566,5.569 L108.2936,5.06 L109.1176,8.993 L111.7306,8.446 L112.1546,10.473 L109.5416,11.02 L111.3146,19.483 C111.4936,20.343 111.7506,20.936 112.0846,21.263 C112.4186,21.591 112.8416,21.7 113.3496,21.594 C113.5256,21.558 113.7076,21.497 113.8936,21.413 C114.0806,21.329 114.2376,21.247 114.3636,21.167 L114.8416,23.151 C114.6486,23.314 114.3866,23.471 114.0506,23.624" id="Fill-26" fill="#FFFFFF"></path>
                        <path d="M125.0691,6.9678 C125.5831,6.3288 126.2181,5.9688 126.9741,5.8878 C127.1331,5.8698 127.2541,5.8668 127.3341,5.8778 L127.5021,8.5458 C127.4201,8.5348 127.3401,8.5298 127.2591,8.5268 C127.1771,8.5268 127.0881,8.5298 126.9881,8.5418 C126.5111,8.5928 126.1051,8.7918 125.7711,9.1408 C125.4361,9.4888 125.1711,9.9248 124.9761,10.4478 C124.7811,10.9718 124.6531,11.5538 124.5921,12.1948 C124.5291,12.8348 124.5351,13.4838 124.6051,14.1398 L125.4231,21.7148 L122.8581,21.9908 L121.6511,10.8068 C121.5871,10.2098 121.5071,9.5698 121.4141,8.8858 C121.3191,8.2018 121.2221,7.5838 121.1231,7.0308 L123.5381,6.7708 C123.6521,7.2618 123.7521,7.7738 123.8401,8.3078 C123.9281,8.8408 123.9991,9.3578 124.0531,9.8548 L124.1121,9.8468 C124.2351,8.5668 124.5541,7.6078 125.0691,6.9678" id="Fill-28" fill="#FFFFFF"></path>
                        <path d="M144.0691,13.501 C144.0771,12.683 144.0301,11.919 143.9281,11.21 C143.8251,10.501 143.6571,9.886 143.4221,9.364 C143.1881,8.843 142.8921,8.431 142.5351,8.128 C142.1781,7.825 141.7601,7.671 141.2801,7.665 C140.8001,7.66 140.3791,7.806 140.0161,8.102 C139.6521,8.397 139.3521,8.802 139.1181,9.318 C138.8821,9.835 138.7051,10.445 138.5881,11.153 C138.4711,11.86 138.4071,12.623 138.3991,13.44 C138.3901,14.258 138.4371,15.017 138.5391,15.716 C138.6421,16.416 138.8061,17.026 139.0301,17.547 C139.2551,18.067 139.5451,18.48 139.9031,18.782 C140.2591,19.085 140.6771,19.239 141.1571,19.245 C141.6571,19.25 142.0901,19.105 142.4521,18.81 C142.8151,18.515 143.1151,18.108 143.3501,17.593 C143.5861,17.077 143.7611,16.47 143.8801,15.772 C143.9961,15.075 144.0601,14.318 144.0691,13.501 M146.7091,13.544 C146.6951,14.743 146.5591,15.832 146.2991,16.81 C146.0381,17.786 145.6691,18.622 145.1921,19.317 C144.7141,20.013 144.1331,20.552 143.4501,20.935 C142.7661,21.317 141.9941,21.504 141.1331,21.495 C140.2941,21.485 139.5351,21.283 138.8601,20.886 C138.1831,20.488 137.6141,19.938 137.1521,19.231 C136.6901,18.527 136.3391,17.684 136.0991,16.7 C135.8601,15.719 135.7461,14.627 135.7591,13.427 C135.7711,12.228 135.9071,11.128 136.1691,10.131 C136.4291,9.134 136.7931,8.288 137.2611,7.593 C137.7281,6.897 138.3041,6.358 138.9871,5.976 C139.6721,5.593 140.4441,5.406 141.3041,5.415 C142.1631,5.425 142.9321,5.628 143.6081,6.024 C144.2831,6.422 144.8531,6.974 145.3161,7.679 C145.7781,8.384 146.1291,9.237 146.3681,10.239 C146.6081,11.242 146.7221,12.344 146.7091,13.544" id="Fill-30" fill="#FFFFFF"></path>
                        <g id="Group-34" transform="translate(155.000000, 0.463000)">
                            <mask id="mask-4" fill="white">
                                <use xlink:href="#path-3"></use>
                            </mask>
                            <g id="Clip-33"></g>
                            <path d="M10.3528,5.7577 C10.4828,4.9287 10.4258,4.2317 10.1808,3.6657 C9.9358,3.1017 9.5058,2.7697 8.8948,2.6737 C8.2618,2.5737 7.7148,2.7717 7.2528,3.2657 C6.7898,3.7597 6.4918,4.4317 6.3578,5.2807 C6.2468,5.9917 6.2488,6.6517 6.3658,7.2567 C6.4828,7.8617 6.7138,8.5457 7.0598,9.3097 C7.8658,8.9497 8.5798,8.5007 9.2008,7.9607 C9.8218,7.4207 10.2058,6.6867 10.3528,5.7577 L10.3528,5.7577 Z M5.7038,11.9497 C5.3758,12.1017 5.0588,12.2837 4.7498,12.4987 C4.4438,12.7137 4.1548,12.9717 3.8858,13.2737 C3.6138,13.5747 3.3808,13.9287 3.1858,14.3327 C2.9908,14.7367 2.8518,15.2057 2.7678,15.7397 C2.5758,16.9657 2.6938,17.9707 3.1278,18.7577 C3.5608,19.5447 4.2118,20.0067 5.0818,20.1437 C5.4558,20.2017 5.8138,20.1827 6.1538,20.0847 C6.4918,19.9857 6.8058,19.8277 7.0938,19.6107 C7.3808,19.3927 7.6428,19.1397 7.8808,18.8537 C8.1188,18.5667 8.3228,18.2647 8.4948,17.9477 L5.7038,11.9497 Z M10.8668,22.9367 L9.5548,20.0887 C9.0278,20.8567 8.3478,21.4837 7.5128,21.9687 C6.6758,22.4537 5.6658,22.6047 4.4798,22.4177 C2.9188,22.1717 1.7528,21.4457 0.9808,20.2417 C0.2078,19.0367 -0.0272,17.4767 0.2758,15.5607 C0.5078,14.0787 1.0438,12.9027 1.8788,12.0317 C2.7138,11.1607 3.6858,10.4887 4.7928,10.0157 C4.3058,8.9867 3.9968,8.0927 3.8628,7.3327 C3.7298,6.5727 3.7288,5.7787 3.8588,4.9477 C3.9838,4.1577 4.2078,3.4697 4.5338,2.8837 C4.8588,2.2957 5.2628,1.8197 5.7478,1.4487 C6.2298,1.0797 6.7668,0.8207 7.3578,0.6707 C7.9478,0.5207 8.5688,0.4957 9.2208,0.5997 C10.4848,0.7987 11.4518,1.3807 12.1198,2.3467 C12.7888,3.3127 13.0078,4.5167 12.7808,5.9577 C12.6718,6.6497 12.4658,7.2557 12.1618,7.7747 C11.8558,8.2927 11.4848,8.7507 11.0498,9.1477 C10.6118,9.5447 10.1208,9.8977 9.5758,10.2067 C9.0318,10.5157 8.4658,10.7957 7.8798,11.0477 L10.1578,15.8697 L12.6208,11.6117 L15.2278,12.0227 L11.3658,18.0347 L13.9778,23.4267 L10.8668,22.9367 Z" id="Fill-32" fill="#FFFFFF" mask="url(#mask-4)"></path>
                        </g>
                        <path d="M188.949,13.4639 C189.142,12.8509 189.207,12.3079 189.148,11.8359 C189.086,11.3639 188.944,10.9499 188.721,10.5959 C188.496,10.2409 188.206,9.9489 187.848,9.7209 C187.491,9.4919 187.102,9.3119 186.682,9.1799 L184.536,8.5029 L182.471,15.0559 L184.675,15.7499 C185.056,15.8699 185.462,15.9309 185.893,15.9289 C186.323,15.9269 186.732,15.8449 187.118,15.6829 C187.504,15.5209 187.86,15.2589 188.183,14.8979 C188.507,14.5349 188.762,14.0579 188.949,13.4639 L188.949,13.4639 Z M186.616,22.7629 C186.834,22.0729 186.91,21.4499 186.845,20.8939 C186.779,20.3349 186.621,19.8549 186.371,19.4489 C186.122,19.0439 185.803,18.7069 185.416,18.4379 C185.03,18.1689 184.626,17.9679 184.207,17.8359 L181.831,17.0869 L179.505,24.4699 L181.995,25.2539 C182.471,25.4039 182.947,25.4759 183.422,25.4669 C183.897,25.4579 184.336,25.3599 184.741,25.1729 C185.147,24.9849 185.511,24.6929 185.834,24.2999 C186.157,23.9079 186.418,23.3959 186.616,22.7629 L186.616,22.7629 Z M187.247,17.5679 C187.586,17.7579 187.925,18.0309 188.262,18.3899 C188.601,18.7479 188.876,19.1869 189.091,19.7039 C189.305,20.2239 189.432,20.8189 189.471,21.4909 C189.511,22.1649 189.401,22.9109 189.142,23.7319 C188.812,24.7799 188.363,25.6049 187.797,26.2019 C187.231,26.7989 186.61,27.2329 185.936,27.5019 C185.263,27.7729 184.57,27.9009 183.86,27.8859 C183.149,27.8719 182.489,27.7689 181.877,27.5759 L176.397,25.8489 L182.781,5.5909 L187.645,7.1239 C188.216,7.3039 188.799,7.5659 189.393,7.9099 C189.987,8.2549 190.491,8.7019 190.905,9.2519 C191.319,9.8019 191.596,10.4549 191.736,11.2119 C191.874,11.9689 191.787,12.8439 191.474,13.8349 C191.263,14.5029 191.004,15.0609 190.696,15.5089 C190.387,15.9559 190.045,16.3249 189.67,16.6159 C189.296,16.9069 188.902,17.1239 188.491,17.2669 C188.078,17.4089 187.67,17.4909 187.265,17.5099 L187.247,17.5679 Z" id="Fill-35" fill="#FFFFFF"></path>
                        <path d="M204.0564,28.4971 L203.0514,28.0241 C202.6344,27.8271 202.2154,27.6751 201.7924,27.5631 C201.3694,27.4531 200.9544,27.4301 200.5494,27.4921 C200.1434,27.5561 199.7614,27.7241 199.4014,27.9961 C199.0394,28.2681 198.7274,28.6841 198.4644,29.2461 C198.0714,30.0781 197.9644,30.7741 198.1434,31.3341 C198.3224,31.8931 198.6464,32.2831 199.1174,32.5051 C199.5884,32.7261 200.0474,32.7711 200.4964,32.6411 C200.9444,32.5091 201.3704,32.2721 201.7744,31.9331 C202.1784,31.5921 202.5424,31.1831 202.8664,30.7061 C203.1904,30.2281 203.4634,29.7551 203.6854,29.2841 L204.0564,28.4971 Z M201.2514,35.3671 C201.3744,34.9171 201.5164,34.4751 201.6774,34.0421 C201.8364,33.6081 201.9764,33.2661 202.0944,33.0121 L202.0404,32.9861 C201.4584,33.7071 200.8014,34.1771 200.0674,34.3951 C199.3354,34.6131 198.5154,34.5101 197.6104,34.0831 C197.2314,33.9051 196.8754,33.6491 196.5454,33.3161 C196.2154,32.9851 195.9694,32.5811 195.8064,32.1061 C195.6424,31.6311 195.5764,31.0921 195.6084,30.4871 C195.6374,29.8821 195.8274,29.2091 196.1774,28.4681 C196.6374,27.4901 197.1904,26.7721 197.8384,26.3151 C198.4844,25.8561 199.1574,25.5771 199.8584,25.4761 C200.5574,25.3741 201.2624,25.4131 201.9734,25.5931 C202.6854,25.7731 203.3394,26.0051 203.9374,26.2851 L204.8324,26.7081 L205.1134,26.1101 C205.6164,25.0431 205.7774,24.1731 205.5954,23.5021 C205.4144,22.8311 204.9804,22.3331 204.2934,22.0101 C203.7854,21.7701 203.2554,21.6761 202.7024,21.7261 C202.1484,21.7741 201.6204,21.9341 201.1174,22.2051 L200.6264,20.2171 C201.3694,19.8151 202.1814,19.6161 203.0624,19.6221 C203.9434,19.6291 204.7374,19.7981 205.4434,20.1301 C206.2204,20.4971 206.8164,20.9331 207.2314,21.4371 C207.6454,21.9421 207.9014,22.5161 207.9974,23.1571 C208.0934,23.7991 208.0384,24.5091 207.8384,25.2881 C207.6374,26.0671 207.3244,26.9081 206.8984,27.8121 L204.3034,33.3221 C204.0824,33.7931 203.8584,34.3121 203.6354,34.8821 C203.4114,35.4501 203.2494,35.9101 203.1514,36.2621 L201.2514,35.3671 Z" id="Fill-37" fill="#FFFFFF"></path>
                        <path d="M222.262,30.3477 C223.06,30.1607 223.782,30.2667 224.428,30.6667 C224.563,30.7507 224.661,30.8227 224.718,30.8817 L223.21,33.0877 C223.152,33.0297 223.092,32.9747 223.03,32.9237 C222.967,32.8727 222.892,32.8217 222.809,32.7687 C222.4,32.5157 221.957,32.4237 221.48,32.4937 C221.001,32.5617 220.524,32.7427 220.049,33.0357 C219.573,33.3287 219.114,33.7087 218.671,34.1757 C218.229,34.6437 217.834,35.1577 217.487,35.7187 L213.474,42.1967 L211.281,40.8377 L217.206,31.2747 C217.521,30.7637 217.852,30.2097 218.199,29.6147 C218.545,29.0167 218.848,28.4697 219.11,27.9717 L221.176,29.2517 C220.963,29.7087 220.728,30.1737 220.469,30.6487 C220.21,31.1237 219.948,31.5747 219.685,31.9987 L219.737,32.0307 C220.621,31.0967 221.462,30.5347 222.262,30.3477" id="Fill-39" fill="#FFFFFF"></path>
                        <path d="M85.9705,70.312 C85.5705,70.312 85.1885,70.276 84.8275,70.204 C84.4655,70.131 84.1315,70.034 83.8255,69.912 C83.5195,69.789 83.2385,69.65 82.9835,69.494 C82.7265,69.339 82.5105,69.183 82.3315,69.027 L84.0675,66.273 C84.3235,66.484 84.6045,66.657 84.9105,66.791 C85.2165,66.924 85.5195,66.991 85.8205,66.991 C86.0095,66.991 86.1675,66.943 86.2965,66.849 C86.4235,66.754 86.4885,66.618 86.4885,66.44 C86.4885,66.229 86.3965,66.051 86.2125,65.906 C86.0295,65.761 85.7425,65.595 85.3525,65.405 C85.0195,65.25 84.7015,65.074 84.4015,64.879 C84.1015,64.685 83.8345,64.448 83.6005,64.17 C83.3665,63.892 83.1805,63.567 83.0415,63.194 C82.9025,62.821 82.8325,62.384 82.8325,61.884 C82.8325,61.161 82.9605,60.546 83.2165,60.039 C83.4725,59.533 83.7985,59.121 84.1935,58.804 C84.5875,58.487 85.0275,58.256 85.5115,58.111 C85.9955,57.967 86.4715,57.895 86.9385,57.895 C87.6505,57.895 88.2875,58.006 88.8495,58.229 C89.4115,58.451 89.8815,58.74 90.2605,59.096 L88.4735,61.817 C88.2845,61.628 88.0625,61.469 87.8065,61.341 C87.5505,61.213 87.3055,61.149 87.0725,61.149 C86.8935,61.149 86.7325,61.194 86.5885,61.283 C86.4435,61.372 86.3705,61.528 86.3705,61.75 C86.3705,61.928 86.4465,62.073 86.5965,62.184 C86.7465,62.295 87.0385,62.457 87.4725,62.668 C87.7175,62.791 87.9905,62.943 88.2905,63.127 C88.5915,63.311 88.8745,63.544 89.1415,63.828 C89.4085,64.112 89.6345,64.454 89.8175,64.854 C90.0015,65.255 90.0935,65.728 90.0935,66.273 C90.0935,66.985 89.9765,67.597 89.7425,68.109 C89.5095,68.621 89.1975,69.038 88.8075,69.361 C88.4185,69.684 87.9755,69.923 87.4805,70.079 C86.9855,70.234 86.4825,70.312 85.9705,70.312" id="Fill-41" fill="#FFFFFF"></path>
                        <mask id="mask-6" fill="white">
                            <use xlink:href="#path-5"></use>
                        </mask>
                        <g id="Clip-44"></g>
                        <polygon id="Fill-43" fill="#FFFFFF" mask="url(#mask-6)" points="94.566 70.012 98.238 70.012 98.238 58.195 94.566 58.195"></polygon>
                        <polygon id="Fill-45" fill="#FFFFFF" mask="url(#mask-6)" points="106.4495 64.437 106.3995 64.437 106.5325 70.012 103.3115 70.012 103.3115 58.195 107.1665 58.195 109.0195 63.953 109.0865 63.953 108.9865 58.195 112.0905 58.195 112.0905 70.012 108.3355 70.012"></polygon>
                        <path d="M116.6966,64.1035 C116.6966,63.1575 116.8196,62.3005 117.0636,61.5335 C117.3086,60.7655 117.6486,60.1085 118.0816,59.5635 C118.5156,59.0185 119.0306,58.5985 119.6256,58.3035 C120.2206,58.0085 120.8746,57.8615 121.5876,57.8615 C122.0316,57.8615 122.4386,57.9025 122.8056,57.9865 C123.1726,58.0695 123.4976,58.1845 123.7816,58.3285 C124.0656,58.4735 124.3156,58.6345 124.5326,58.8125 C124.7496,58.9905 124.9356,59.1795 125.0926,59.3795 L123.1556,62.1335 C123.0106,61.9445 122.8496,61.7745 122.6716,61.6245 C122.4936,61.4745 122.2436,61.3995 121.9206,61.3995 C121.6876,61.3995 121.4786,61.4665 121.2946,61.5995 C121.1116,61.7335 120.9526,61.9195 120.8196,62.1595 C120.6856,62.3985 120.5856,62.6845 120.5186,63.0185 C120.4516,63.3525 120.4186,63.7135 120.4186,64.1035 C120.4186,64.4935 120.4516,64.8495 120.5186,65.1715 C120.5856,65.4945 120.6856,65.7755 120.8196,66.0145 C120.9526,66.2535 121.1136,66.4395 121.3026,66.5735 C121.4926,66.7075 121.7036,66.7735 121.9376,66.7735 C122.2046,66.7735 122.4356,66.6985 122.6306,66.5485 C122.8246,66.3985 122.9836,66.2345 123.1056,66.0565 L125.1256,68.7265 C124.9586,68.9495 124.7636,69.1575 124.5416,69.3525 C124.3186,69.5475 124.0656,69.7165 123.7816,69.8615 C123.4976,70.0065 123.1756,70.1235 122.8136,70.2115 C122.4516,70.3005 122.0436,70.3455 121.5876,70.3455 C120.8746,70.3455 120.2206,70.1955 119.6256,69.8955 C119.0306,69.5945 118.5156,69.1685 118.0816,68.6185 C117.6486,68.0675 117.3086,67.4115 117.0636,66.6485 C116.8196,65.8865 116.6966,65.0385 116.6966,64.1035" id="Fill-46" fill="#FFFFFF" mask="url(#mask-6)"></path>
                        <polygon id="Fill-47" fill="#FFFFFF" mask="url(#mask-6)" points="129.3479 58.1948 135.6569 58.1948 135.6569 61.3828 132.8029 61.3828 132.8029 62.5678 135.3899 62.5678 135.3899 65.5218 132.8029 65.5218 132.8029 66.7578 135.8739 66.7578 135.8739 70.0118 129.3479 70.0118"></polygon>
                        <polygon id="Fill-48" fill="#FFFFFF" mask="url(#mask-6)" points="149.8098 62.4175 148.3078 63.5525 146.7388 60.7485 150.2798 58.1945 153.4148 58.1945 153.4148 70.0115 149.8098 70.0115"></polygon>
                        <path d="M163.6463,63.8696 C163.8913,63.8696 164.0913,63.7316 164.2473,63.4546 C164.4023,63.1786 164.4803,62.8296 164.4803,62.4096 C164.4803,61.9886 164.4023,61.6346 164.2473,61.3476 C164.0913,61.0596 163.8913,60.9156 163.6463,60.9156 C163.3903,60.9156 163.1843,61.0596 163.0283,61.3476 C162.8733,61.6346 162.7953,61.9886 162.7953,62.4096 C162.7953,62.8296 162.8733,63.1786 163.0283,63.4546 C163.1843,63.7316 163.3903,63.8696 163.6463,63.8696 L163.6463,63.8696 Z M162.7453,66.2726 C162.2883,66.2726 161.8573,66.1896 161.4513,66.0226 C161.0453,65.8556 160.6923,65.6086 160.3913,65.2806 C160.0913,64.9526 159.8523,64.5456 159.6743,64.0616 C159.4963,63.5776 159.4073,63.0246 159.4073,62.4006 C159.4073,61.6666 159.5213,61.0216 159.7493,60.4646 C159.9773,59.9086 160.2833,59.4416 160.6673,59.0626 C161.0513,58.6846 161.5013,58.4006 162.0193,58.2116 C162.5363,58.0226 163.0843,57.9276 163.6633,57.9276 C164.2413,57.9276 164.7893,58.0196 165.3073,58.2026 C165.8243,58.3866 166.2773,58.6596 166.6673,59.0206 C167.0563,59.3826 167.3653,59.8386 167.5933,60.3896 C167.8213,60.9406 167.9363,61.5826 167.9363,62.3176 C167.9363,63.1076 167.8183,63.8276 167.5853,64.4786 C167.3513,65.1296 167.0843,65.7226 166.7843,66.2566 L164.6973,70.0116 L160.5253,70.0116 L162.7453,66.2726 Z" id="Fill-49" fill="#FFFFFF" mask="url(#mask-6)"></path>
                        <path d="M172.4085,66.8403 L176.2145,63.0183 C176.4035,62.8183 176.5705,62.6043 176.7145,62.3763 C176.8595,62.1483 176.9315,61.9283 176.9315,61.7163 C176.9315,61.5283 176.8815,61.3693 176.7815,61.2413 C176.6815,61.1133 176.5315,61.0483 176.3305,61.0483 C176.0965,61.0483 175.9055,61.1633 175.7555,61.3913 C175.6045,61.6193 175.5295,61.9503 175.5295,62.3843 L172.1415,62.0843 C172.2085,61.3823 172.3585,60.7713 172.5925,60.2483 C172.8255,59.7253 173.1315,59.2943 173.5105,58.9543 C173.8885,58.6153 174.3225,58.3593 174.8115,58.1863 C175.3015,58.0143 175.8295,57.9273 176.3975,57.9273 C176.9985,57.9273 177.5435,58.0113 178.0335,58.1783 C178.5225,58.3453 178.9455,58.5903 179.3015,58.9123 C179.6575,59.2353 179.9325,59.6333 180.1275,60.1063 C180.3225,60.5793 180.4195,61.1213 180.4195,61.7333 C180.4195,62.1233 180.3665,62.4843 180.2615,62.8183 C180.1555,63.1523 180.0195,63.4613 179.8525,63.7443 C179.6855,64.0283 179.4995,64.2903 179.2935,64.5283 C179.0875,64.7683 178.8845,64.9773 178.6835,65.1543 L176.8145,66.8903 L180.2695,66.8903 L180.2695,70.0113 L172.4085,70.0113 L172.4085,66.8403 Z" id="Fill-50" fill="#FFFFFF" mask="url(#mask-6)"></path>
                        <path d="M193.0208,65.8892 C193.0208,66.6462 192.9098,67.2992 192.6878,67.8502 C192.4648,68.4012 192.1618,68.8542 191.7778,69.2102 C191.3938,69.5672 190.9518,69.8342 190.4508,70.0122 C189.9498,70.1892 189.4158,70.2792 188.8488,70.2792 C188.3478,70.2792 187.8668,70.2062 187.4048,70.0622 C186.9428,69.9172 186.5288,69.6952 186.1618,69.3942 C185.7938,69.0942 185.4848,68.7182 185.2348,68.2672 C184.9848,67.8172 184.8098,67.2852 184.7088,66.6742 L187.7968,65.7222 C187.8308,66.0782 187.9248,66.3982 188.0808,66.6822 C188.2368,66.9662 188.4648,67.1072 188.7648,67.1072 C189.0648,67.1072 189.2708,66.9962 189.3828,66.7742 C189.4938,66.5512 189.5498,66.3122 189.5498,66.0562 C189.5498,65.8222 189.5018,65.6302 189.4078,65.4802 C189.3128,65.3302 189.1958,65.2132 189.0568,65.1302 C188.9178,65.0462 188.7588,64.9882 188.5818,64.9542 C188.4028,64.9212 188.2308,64.9042 188.0638,64.9042 C187.8858,64.9042 187.6858,64.9182 187.4628,64.9462 C187.2408,64.9742 187.0128,65.0132 186.7788,65.0632 C186.5448,65.1132 186.3118,65.1662 186.0778,65.2222 C185.8438,65.2772 185.6378,65.3272 185.4598,65.3722 L185.7938,58.1952 L192.5868,58.1952 L192.5868,61.3332 L188.7988,61.3332 L188.7318,62.3172 C188.8318,62.2952 188.9458,62.2762 189.0738,62.2592 C189.2018,62.2422 189.3098,62.2342 189.3988,62.2342 C190.5118,62.2342 191.3938,62.5572 192.0448,63.2022 C192.6958,63.8472 193.0208,64.7432 193.0208,65.8892" id="Fill-51" fill="#FFFFFF" mask="url(#mask-6)"></path>
                        <path d="M17.4583,109.5654 C27.5913,108.8094 37.2713,94.2904 30.0113,92.8534 C28.6503,92.6264 22.9793,93.3824 21.5413,93.5334 C21.0123,96.0294 19.1973,102.8354 17.4583,109.5654 M14.8113,119.6234 C13.8283,123.2534 12.8453,126.7324 12.0893,129.3784 C19.7273,130.4374 27.8183,129.3784 28.0453,125.1444 C28.1963,121.2114 20.7863,119.4724 14.8113,119.6234 M35.3803,127.2614 C33.0363,135.5794 19.8783,141.3274 1.4263,134.8234 C-1.7497,133.1594 0.8973,126.5804 4.3003,127.3364 C6.9473,116.9004 11.5603,98.9784 12.6943,94.7434 C9.6693,95.1974 7.0223,95.8024 5.5853,96.1054 C4.1483,94.7434 3.9213,89.1474 5.9633,87.1814 C23.7353,83.1734 40.1453,82.3414 40.3723,92.7774 C40.5233,102.0034 33.6413,110.7754 25.9283,114.1784 C31.6003,115.9184 37.3473,120.0774 35.3803,127.2614" id="Fill-52" fill="#FFFFFF" mask="url(#mask-6)"></path>
                        <path d="M56.7019,114.7837 C56.0209,117.2037 57.9119,118.2627 60.6349,118.2627 C60.9369,115.1617 58.3659,113.4227 56.7019,114.7837 M60.5589,123.3287 C56.4749,123.4797 52.8459,121.9677 51.7109,118.7917 C48.9889,122.8747 49.0639,128.6227 53.4509,129.8327 C57.0799,129.6057 59.5759,126.6567 60.5589,123.3287 M76.4399,112.2127 C75.1539,116.3717 71.2969,119.3207 68.4989,120.9847 C67.7429,129.9087 61.0879,139.2847 50.7279,137.3947 C35.6789,134.6727 41.2749,103.8937 59.2729,106.6167 C64.6419,107.3727 67.5159,111.3047 68.3479,116.1447 C69.8609,115.6907 73.1119,113.7247 74.3979,111.3047 C75.2299,109.7167 77.1959,109.9437 76.4399,112.2127" id="Fill-53" fill="#FFFFFF" mask="url(#mask-6)"></path>
                        <path d="M103.1316,121.8164 C101.6946,125.5224 99.8796,129.6814 98.2156,131.9494 C95.4186,135.8064 92.1666,138.9834 88.2346,137.0164 C84.9826,135.4284 84.3776,130.3614 85.9656,124.2364 L85.9656,124.3874 C83.8476,128.7744 80.2936,136.3364 79.6886,136.9414 C77.1936,138.6044 71.8996,136.9414 71.9756,133.9914 C72.3536,129.5294 78.1756,108.6584 78.4026,107.2214 C79.8396,106.1624 84.9826,107.2964 85.5116,110.0194 C84.9826,112.3634 82.1086,121.7404 81.5036,123.7074 C82.6376,121.5144 87.4776,110.8514 88.8396,108.2044 C89.5196,106.9194 91.2586,106.3894 93.1496,106.4644 C95.8716,106.4644 98.8206,107.6744 98.7456,109.4904 C98.2156,111.1534 93.5276,122.4974 92.7716,125.0684 C90.9566,131.1184 93.6036,132.1014 97.1576,125.2194 C97.9136,123.7074 98.7456,122.0434 99.4256,120.3044 C100.5606,118.4134 103.6606,119.8504 103.1316,121.8164" id="Fill-54" fill="#FFFFFF" mask="url(#mask-6)"></path>
                        <path d="M164.2288,88.6939 C158.8598,108.1289 153.6418,129.3029 151.4488,136.4869 C150.1628,138.8319 143.8108,137.0919 143.8868,135.3529 C144.5668,132.3279 146.4578,124.9169 148.4998,117.0519 C145.7768,117.1279 142.9788,117.2039 140.3328,117.2039 C137.9128,125.9759 135.6438,134.5209 135.1898,136.4119 C133.9038,138.6799 127.4768,136.9409 127.5518,135.2019 C127.8538,133.6139 130.1238,125.2199 132.2408,117.2039 C131.4088,117.2039 130.7288,117.1279 130.1988,117.1279 C126.8718,117.1279 126.5688,110.3219 129.2908,109.7169 C130.7288,109.6409 132.3918,109.4899 134.2828,109.4149 C135.7948,103.7429 137.0048,98.9789 137.3078,97.9949 C138.5178,92.7019 134.3578,92.5509 122.2588,94.5169 C118.8548,95.0459 120.0648,87.1059 123.1658,86.1229 C138.2908,82.5689 148.2728,86.7279 147.0628,92.4749 C146.2308,95.6509 144.4158,102.1549 142.5248,109.2629 C145.4748,109.1879 148.2728,109.1879 150.5408,109.1119 C152.8858,100.1129 155.0028,91.7949 155.6078,89.3749 C156.6668,85.8959 164.9098,84.5349 164.2288,88.6939" id="Fill-55" fill="#FFFFFF" mask="url(#mask-6)"></path>
                        <path d="M177.9871,114.7837 C177.3061,117.2037 179.1971,118.2627 181.9201,118.2627 C182.2221,115.1617 179.6511,113.4227 177.9871,114.7837 M181.8441,123.3287 C177.7601,123.4797 174.1311,121.9677 172.9961,118.7917 C170.2741,122.8747 170.3491,128.6227 174.7361,129.8327 C178.3651,129.6057 180.8611,126.6567 181.8441,123.3287 M197.7251,112.2127 C196.4391,116.3717 192.5821,119.3207 189.7841,120.9847 C189.0281,129.9087 182.3731,139.2847 172.0131,137.3947 C156.9641,134.6727 162.5601,103.8937 180.5581,106.6167 C185.9271,107.3727 188.8011,111.3047 189.6331,116.1447 C191.1461,115.6907 194.3971,113.7247 195.6831,111.3047 C196.5151,109.7167 198.4811,109.9437 197.7251,112.2127" id="Fill-56" fill="#FFFFFF" mask="url(#mask-6)"></path>
                        <path d="M228.2732,121.8164 C226.9122,125.5224 224.8702,129.6814 223.2062,131.9494 C220.3332,135.8064 217.0052,138.6804 212.8462,137.2434 C210.8042,136.5634 209.4432,134.8994 208.9142,132.5544 C206.2672,136.6384 203.5442,138.1504 199.7632,137.3944 C195.9822,136.6384 193.5622,132.9334 195.0752,125.5224 C195.8312,121.2114 199.5372,108.6584 200.2172,107.2214 C200.8982,105.9354 203.3932,106.2384 205.1322,106.8434 C206.8722,107.4484 209.0652,108.7334 208.9142,110.6244 C208.2332,112.6664 205.2082,120.8334 203.8472,125.0684 C201.9572,131.1184 206.1162,131.6474 208.4602,125.8244 C209.5942,123.1024 213.4512,108.2804 214.0562,107.2214 C214.6612,105.9354 217.3082,106.2384 219.1232,106.8434 C220.8622,107.4484 222.9802,108.7334 222.9042,110.6244 C222.1482,112.6664 219.1232,120.8334 217.8372,125.0684 C215.9462,131.1184 218.5182,132.0254 222.0722,125.2194 C222.8282,123.7074 223.6602,122.0434 224.4162,120.3044 C225.4752,118.4134 228.8022,119.8504 228.2732,121.8164" id="Fill-57" fill="#FFFFFF" mask="url(#mask-6)"></path>
                        <path d="M233.4876,129.6055 C236.7386,133.0085 242.3356,130.2865 240.7476,126.3545 C239.8396,123.5555 235.6806,120.1525 233.5636,117.8845 C232.8066,119.7745 232.0506,122.4215 230.9916,124.9925 C231.5216,127.4125 232.5046,128.6225 233.4876,129.6055 M254.2836,121.7405 C252.8466,125.4465 251.0316,129.5295 249.4436,131.8745 C246.9476,135.3535 242.6376,137.9995 238.3276,137.5455 C233.0336,137.4705 228.4206,133.9915 226.6816,130.1345 C225.5476,129.8325 224.8666,127.9415 225.3206,126.8835 C227.4376,123.0265 230.3116,113.3465 230.3866,103.5915 C230.5386,102.3055 239.2346,103.1375 239.5376,108.2805 C239.0086,109.0365 237.3436,110.7755 236.6636,111.5315 C238.7056,113.9515 245.7376,119.5475 248.3846,124.9925 C249.1416,123.4805 249.8976,121.8925 250.6536,120.2285 C251.7126,118.3375 254.8136,119.7745 254.2836,121.7405" id="Fill-58" fill="#FFFFFF" mask="url(#mask-6)"></path>
                        <path d="M261.1629,120.1528 C263.1289,120.9848 264.8679,120.1528 266.2289,117.2788 C267.5149,114.7078 267.6659,112.5148 266.8339,112.0608 C265.1709,111.7588 262.9769,114.4808 261.1629,120.1528 M279.3119,121.8918 C277.8749,125.5218 275.9089,129.5298 274.3969,131.8738 C267.8169,142.4618 249.0629,138.1508 252.3909,121.2118 C253.4489,116.1448 254.7349,112.6658 257.3059,109.5658 C262.1459,104.4238 271.9769,106.3138 273.4129,108.6578 C274.3969,110.0948 273.9429,114.0278 272.6569,117.2038 C270.9179,121.5138 267.1369,127.7908 260.4819,126.9588 C260.1039,132.3278 269.1789,133.6138 273.3379,125.2198 C274.0939,123.7068 274.9259,122.0438 275.6069,120.3798 C276.7409,118.4888 279.8419,119.9258 279.3119,121.8918" id="Fill-59" fill="#FFFFFF" mask="url(#mask-6)"></path>
                        <polygon id="Fill-60" fill="#FFFFFF" mask="url(#mask-6)" points="92.267 168.798 96.748 168.798 96.748 167.619 92.267 167.619"></polygon>
                        <path d="M109.7732,160.8877 L111.3512,160.8877 L111.3512,166.7837 L111.4062,166.7837 C111.7322,166.3117 112.0592,165.8767 112.3672,165.4777 L116.1052,160.8877 L118.0642,160.8877 L113.6372,166.0757 L118.4092,173.1157 L116.5402,173.1157 L112.5122,167.1107 L111.3512,168.4527 L111.3512,173.1157 L109.7732,173.1157 L109.7732,160.8877 Z" id="Fill-61" fill="#FFFFFF" mask="url(#mask-6)"></path>
                        <path d="M125.8284,173.1157 L125.8284,167.9267 L121.9644,160.8877 L123.7604,160.8877 L125.4834,164.2617 C125.9554,165.1877 126.3184,165.9307 126.6994,166.7837 L126.7354,166.7837 C127.0804,165.9857 127.4974,165.1877 127.9694,164.2617 L129.7294,160.8877 L131.5254,160.8877 L127.4254,167.9087 L127.4254,173.1157 L125.8284,173.1157 Z" id="Fill-62" fill="#FFFFFF" mask="url(#mask-6)"></path>
                        <path d="M136.8582,167.0742 C136.8582,169.6862 138.2732,172.0272 140.7592,172.0272 C143.2622,172.0272 144.6782,169.7232 144.6782,166.9472 C144.6782,164.5162 143.4082,161.9762 140.7772,161.9762 C138.1642,161.9762 136.8582,164.3892 136.8582,167.0742 M146.3472,166.8742 C146.3472,171.0842 143.7892,173.3152 140.6682,173.3152 C137.4392,173.3152 135.1712,170.8112 135.1712,167.1102 C135.1712,163.2282 137.5842,160.6882 140.8502,160.6882 C144.1882,160.6882 146.3472,163.2462 146.3472,166.8742" id="Fill-63" fill="#FFFFFF" mask="url(#mask-6)"></path>
                        <polygon id="Fill-64" fill="#FFFFFF" mask="url(#mask-6)" points="153.8933 162.23 150.1743 162.23 150.1743 160.888 159.2273 160.888 159.2273 162.23 155.4903 162.23 155.4903 173.116 153.8933 173.116"></polygon>
                        <path d="M164.6878,167.0742 C164.6878,169.6862 166.1028,172.0272 168.5888,172.0272 C171.0918,172.0272 172.5068,169.7232 172.5068,166.9472 C172.5068,164.5162 171.2378,161.9762 168.6068,161.9762 C165.9938,161.9762 164.6878,164.3892 164.6878,167.0742 M174.1768,166.8742 C174.1768,171.0842 171.6188,173.3152 168.4978,173.3152 C165.2688,173.3152 163.0008,170.8112 163.0008,167.1102 C163.0008,163.2282 165.4138,160.6882 168.6798,160.6882 C172.0178,160.6882 174.1768,163.2462 174.1768,166.8742" id="Fill-65" fill="#FFFFFF" mask="url(#mask-6)"></path>
                        <polygon id="Fill-66" fill="#FFFFFF" mask="url(#mask-6)" points="179.273 168.798 183.754 168.798 183.754 167.619 179.273 167.619"></polygon>
                    </g>
                </g>
            </g>
        </g>
    </g>
</svg>