<?xml version="1.0" encoding="UTF-8"?>
<svg width="10px" height="18px" viewBox="0 0 10 18" version="1.1" xmlns="http://www.w3.org/2000/svg" xmlns:xlink="http://www.w3.org/1999/xlink">
    <!-- Generator: Sketch 52.2 (67145) - http://www.bohemiancoding.com/sketch -->
    <title>facebook</title>
    <desc>Created with Sketch.</desc>
    <g id="Page-1" stroke="none" stroke-width="1" fill="none" fill-rule="evenodd">
        <g id="1024" transform="translate(-511.000000, -2332.000000)" fill="#FFFFFF">
            <g id="フッター" transform="translate(0.000000, 2223.000000)">
                <g id="SNSアイコン" transform="translate(474.000000, 109.000000)">
                    <path d="M46.2805773,0.00371134021 L43.9674845,-8.8817842e-15 C41.3688041,-8.8817842e-15 39.6894227,1.72298969 39.6894227,4.3897732 L39.6894227,6.41375258 L37.3637113,6.41375258 C37.1627423,6.41375258 37,6.57668041 37,6.77764948 L37,9.71016495 C37,9.91113402 37.1629278,10.0738763 37.3637113,10.0738763 L39.6894227,10.0738763 L39.6894227,17.4735464 C39.6894227,17.6745155 39.8521649,17.8372577 40.053134,17.8372577 L43.0875258,17.8372577 C43.2884948,17.8372577 43.4512371,17.6743299 43.4512371,17.4735464 L43.4512371,10.0738763 L46.1705361,10.0738763 C46.3715052,10.0738763 46.5342474,9.91113402 46.5342474,9.71016495 L46.5353608,6.77764948 C46.5353608,6.68115464 46.4969485,6.58874227 46.4288454,6.52045361 C46.3607423,6.45216495 46.2679588,6.41375258 46.1714639,6.41375258 L43.4512371,6.41375258 L43.4512371,4.698 C43.4512371,3.87334021 43.6477526,3.45470103 44.722,3.45470103 L46.2802062,3.45414433 C46.4809897,3.45414433 46.643732,3.29121649 46.643732,3.09043299 L46.643732,0.36742268 C46.643732,0.166824742 46.4811753,0.00408247423 46.2805773,0.00371134021 L46.2805773,0.00371134021 Z" id="facebook"></path>
                </g>
            </g>
        </g>
    </g>
</svg>