<?xml version="1.0" encoding="UTF-8"?>
<svg width="14px" height="18px" viewBox="0 0 14 18" version="1.1" xmlns="http://www.w3.org/2000/svg" xmlns:xlink="http://www.w3.org/1999/xlink">
    <!-- Generator: Sketch 52.2 (67145) - http://www.bohemiancoding.com/sketch -->
    <title>pinterest</title>
    <desc>Created with Sketch.</desc>
    <g id="Page-1" stroke="none" stroke-width="1" fill="none" fill-rule="evenodd">
        <g id="1024" transform="translate(-536.000000, -2332.000000)" fill="#FFFFFF">
            <g id="フッター" transform="translate(0.000000, 2223.000000)">
                <g id="SNSアイコン" transform="translate(474.000000, 109.000000)">
                    <path d="M75.9083094,4.99890529 C75.4173196,1.44610447 71.8768638,-0.362877052 68.0993402,0.0606958437 C65.1128186,0.395525413 62.1352786,2.81014964 62.011681,6.26293404 C61.9363915,8.37078209 62.5341615,9.95167736 64.5397755,10.3966507 C65.4083217,8.85959112 64.2600178,8.52361576 64.0802396,7.41012911 C63.3442724,2.85956648 69.3296605,-0.248297996 72.4645065,2.93149256 C74.6352991,5.13373896 73.2049459,11.904511 69.7083258,11.2000347 C66.3588843,10.5281209 71.3487652,5.13824821 68.6757468,4.08094225 C66.5026995,3.22026874 65.3487776,6.71016196 66.379102,8.44499975 C65.7746051,11.4281579 64.4735045,14.2371188 65.0004572,17.9775706 C66.7083135,16.7371229 67.2847201,14.3652256 67.7566379,11.8899484 C68.6150568,12.4124289 69.0746297,12.9528724 70.1690075,13.0371435 C74.2049624,13.3505726 76.4622437,9.0078786 75.9083094,4.99890529 L75.9083094,4.99890529 Z" id="pinterest"></path>
                </g>
            </g>
        </g>
    </g>
</svg>