<?xml version="1.0" encoding="UTF-8"?>
<svg width="22px" height="18px" viewBox="0 0 22 18" version="1.1" xmlns="http://www.w3.org/2000/svg" xmlns:xlink="http://www.w3.org/1999/xlink">
    <!-- Generator: Sketch 52.2 (67145) - http://www.bohemiancoding.com/sketch -->
    <title>twitter</title>
    <desc>Created with Sketch.</desc>
    <g id="Page-1" stroke="none" stroke-width="1" fill="none" fill-rule="evenodd">
        <g id="1024" transform="translate(-474.000000, -2332.000000)" fill="#FFFFFF">
            <g id="フッター" transform="translate(0.000000, 2223.000000)">
                <g id="SNSアイコン" transform="translate(474.000000, 109.000000)">
                    <path d="M21.6382444,2.12968323 C20.8418355,2.49108161 19.9873002,2.73617786 19.0894531,2.84560035 C20.0062161,2.28338889 20.7079752,1.39164264 21.0405753,0.332322844 C20.1806305,0.852966795 19.2314101,1.23102114 18.2199973,1.43596201 C17.4100821,0.55113162 16.2580559,0 14.9802659,0 C12.5288468,0 10.5412011,2.03554079 10.5412011,4.5446543 C10.5412011,4.90051275 10.5804117,5.24807943 10.6561457,5.58043849 C6.96752609,5.39070524 3.69671624,3.58088908 1.50760825,0.830807111 C1.12494305,1.50102893 0.907252057,2.28197675 0.907252057,3.11560813 C0.907252057,4.69282003 1.69149827,6.08446267 2.88139152,6.89865002 C2.15392811,6.87373848 1.46974126,6.66879761 0.870763977,6.32814678 L0.870763977,6.38492192 C0.870763977,8.58662413 2.40138942,10.4241399 4.43093278,10.8423496 C4.05908672,10.9448201 3.66698129,11.0015952 3.26133426,11.0015952 C2.97469776,11.0015952 2.6975015,10.9725197 2.4257148,10.9171204 C2.99089111,12.7241848 4.62970795,14.0382685 6.57139,14.0742961 C5.05292725,15.2928615 3.13829306,16.0170704 1.05872002,16.0170704 C0.700415559,16.0170704 0.347485316,15.9949107 -5.32907052e-15,15.9547553 C1.96466388,17.2467156 4.29710779,18 6.80396615,18 C14.9695175,18 19.4329431,11.0736142 19.4329431,5.06671039 L19.4180579,4.47821145 C20.2901654,3.84119295 21.0446413,3.0408373 21.6382444,2.12968323 L21.6382444,2.12968323 Z" id="twitter"></path>
                </g>
            </g>
        </g>
    </g>
</svg>