<?xml version="1.0" encoding="UTF-8"?>
<svg width="133px" height="26px" viewBox="0 0 133 26" version="1.1" xmlns="http://www.w3.org/2000/svg" xmlns:xlink="http://www.w3.org/1999/xlink">
    <!-- Generator: Sketch 52.2 (67145) - http://www.bohemiancoding.com/sketch -->
    <title>フッターロゴ</title>
    <desc>Created with Sketch.</desc>
    <defs>
        <polygon id="path-1" points="0.0238450595 15.2727273 16.4395692 15.2727273 16.4395692 0.384885345 0.0238450595 0.384885345"></polygon>
        <polygon id="path-3" points="0.159315059 15.2727273 16.5750392 15.2727273 16.5750392 0.384885345 0.159315059 0.384885345"></polygon>
    </defs>
    <g id="Page-1" stroke="none" stroke-width="1" fill="none" fill-rule="evenodd">
        <g id="1024" transform="translate(-446.000000, -2253.000000)">
            <g id="フッター" transform="translate(0.000000, 2223.000000)">
                <g id="フッターロゴ" transform="translate(446.000000, 30.000000)">
                    <g id="Group-3" transform="translate(0.000000, 0.109439)" fill="#FFFFFF">
                        <path d="M8.2926925,12.3735818 C13.1058675,12.0127636 17.7038675,5.08324091 14.2553675,4.3974 C13.6088925,4.28905909 10.9146925,4.64987727 10.2321175,4.72194545 C9.9808425,5.91321818 9.1187175,9.16153636 8.2926925,12.3735818 M7.0353675,17.1739909 C6.5684425,18.9064909 6.1015175,20.5669227 5.7424175,21.8302636 C9.3699925,22.3352182 13.2136925,21.8302636 13.3215175,19.8090136 C13.3932425,17.9319 9.8734925,17.1019227 7.0353675,17.1739909 M16.8056425,20.8194 C15.6922425,24.7893545 9.4421925,27.5327182 0.6774925,24.4285364 C-0.8311075,23.6343545 0.4262175,20.4943773 2.0426425,20.8556727 C3.2999675,15.8743773 5.4911425,7.32069545 6.0297925,5.29944545 C4.5929175,5.51612727 3.3355925,5.80487727 2.6530175,5.94949091 C1.9704425,5.29944545 1.8626175,2.62862727 2.8325675,1.69030909 C11.2742675,-0.2226 19.0690175,-0.619690909 19.1768425,4.36112727 C19.2485675,8.76444545 15.9796175,12.9510818 12.3159425,14.5752409 C15.0101425,15.4056955 17.7399675,17.3906727 16.8056425,20.8194" id="Fill-1"></path>
                    </g>
                    <g id="Group-6" transform="translate(19.950000, 10.609439)">
                        <mask id="mask-2" fill="white">
                            <use xlink:href="#path-1"></use>
                        </mask>
                        <g id="Clip-5"></g>
                        <path d="M6.9834025,4.36408636 C6.6599275,5.51908636 7.5581525,6.02451818 8.8515775,6.02451818 C8.9950275,4.54449545 7.7738025,3.71451818 6.9834025,4.36408636 M8.8154775,8.44285909 C6.8760525,8.51445 5.1518025,7.79281364 4.6126775,6.27699545 C3.3197275,8.2257 3.3553525,10.9690636 5.4391775,11.5465636 C7.1629525,11.4382227 8.3485525,10.0307455 8.8154775,8.44285909 M16.3589525,3.13701818 C15.7481025,5.12199545 13.9160275,6.52947273 12.5869775,7.32365455 C12.2278775,11.5828364 9.0667525,16.0582227 4.1457525,15.1557 C-3.0025225,13.8565636 -0.3444225,-0.833413636 8.2046275,0.4662 C10.7553775,0.827018182 12.1205275,2.70365455 12.5152525,5.01365455 C13.2339275,4.79697273 14.7781525,3.85865455 15.3890025,2.70365455 C15.7842025,1.94574545 16.7180525,2.05408636 16.3589525,3.13701818" id="Fill-4" fill="#FFFFFF" mask="url(#mask-2)"></path>
                    </g>
                    <path d="M48.98751,18.3300886 C48.30541,20.0988614 47.44281,22.0838386 46.652885,23.1662932 C45.323835,25.0071341 43.779135,26.5234295 41.911435,25.5846341 C40.366735,24.826725 40.07936,22.4083841 40.83366,19.4850886 L40.83366,19.5571568 C39.82761,21.6509523 38.13946,25.2600886 37.852085,25.5483614 C36.66696,26.3425432 34.15231,25.5483614 34.18841,24.1408841 C34.36796,22.0112932 37.133885,12.0501341 37.241235,11.3642932 C37.924285,10.8588614 40.366735,11.4000886 40.61801,12.6997023 C40.366735,13.8184295 39.001585,18.2938159 38.71421,19.2326114 C39.25286,18.1859523 41.55186,13.0967932 42.19881,11.8334523 C42.52181,11.2196795 43.34831,10.9672023 44.24606,11.0029977 C45.53901,11.0029977 46.939785,11.5804977 46.90416,12.447225 C46.652885,13.2409295 44.42561,18.6551114 44.06651,19.8821795 C43.204385,22.7696795 44.46171,23.2388386 46.14986,19.9542477 C46.50896,19.2326114 46.90416,18.4384295 47.227635,17.6084523 C47.766285,16.7059295 49.238785,17.3917705 48.98751,18.3300886" id="Fill-7" fill="#FFFFFF"></path>
                    <path d="M78.00868,2.521575 C75.458405,11.7973705 72.979855,21.9031432 71.93818,25.3323477 C71.32733,26.451075 68.31013,25.6206205 68.34623,24.7906432 C68.66923,23.3468932 69.567455,19.809825 70.537405,16.056075 C69.24398,16.0923477 67.91493,16.1286205 66.65808,16.1286205 C65.50858,20.3152568 64.430805,24.3935523 64.215155,25.296075 C63.604305,26.3785295 60.55148,25.5485523 60.587105,24.718575 C60.73103,23.9606659 61.808805,19.9544386 62.81438,16.1286205 C62.41918,16.1286205 62.095705,16.0923477 61.84443,16.0923477 C60.264105,16.0923477 60.12018,12.8440295 61.41313,12.5552795 C62.095705,12.5190068 62.886105,12.4469386 63.78433,12.4111432 C64.50253,9.70405227 65.07728,7.430325 65.221205,6.96068864 C65.795955,4.43448409 63.819955,4.36241591 58.07293,5.30073409 C56.456505,5.55321136 57.03078,1.76366591 58.503755,1.29450682 C65.68813,-0.402197727 70.42958,1.58325682 69.85483,4.32614318 C69.45963,5.84196136 68.597505,8.94614318 67.69928,12.3385977 C69.10053,12.3028023 70.42958,12.3028023 71.50688,12.2665295 C72.620755,7.97155227 73.62633,4.00159773 73.913705,2.84659773 C74.41673,1.18616591 78.332155,0.536597727 78.00868,2.521575" id="Fill-9" fill="#FFFFFF"></path>
                    <g id="Group-13" transform="translate(77.425000, 10.609439)">
                        <mask id="mask-4" fill="white">
                            <use xlink:href="#path-3"></use>
                        </mask>
                        <g id="Clip-12"></g>
                        <path d="M7.1188725,4.36408636 C6.7953975,5.51908636 7.6936225,6.02451818 8.9870475,6.02451818 C9.1304975,4.54449545 7.9092725,3.71451818 7.1188725,4.36408636 M8.9509475,8.44285909 C7.0110475,8.51445 5.2867975,7.79281364 4.7481475,6.27699545 C3.4551975,8.2257 3.4908225,10.9690636 5.5746475,11.5465636 C7.2984225,11.4382227 8.4840225,10.0307455 8.9509475,8.44285909 M16.4944225,3.13701818 C15.8835725,5.12199545 14.0514975,6.52947273 12.7224475,7.32365455 C12.3633475,11.5828364 9.2022225,16.0582227 4.2812225,15.1557 C-2.8670525,13.8565636 -0.2089525,-0.833413636 8.3400975,0.4662 C10.8903725,0.827018182 12.2555225,2.70365455 12.6507225,5.01365455 C13.3693975,4.79697273 14.9136225,3.85865455 15.5244725,2.70365455 C15.9196725,1.94574545 16.8535225,2.05408636 16.4944225,3.13701818" id="Fill-11" fill="#FFFFFF" mask="url(#mask-4)"></path>
                    </g>
                    <path d="M108.42977,18.3300886 C107.783295,20.0988614 106.813345,22.0838386 106.022945,23.1662932 C104.65827,25.0071341 103.07747,26.3788159 101.101945,25.692975 C100.131995,25.3684295 99.48552,24.5742477 99.234245,23.4550432 C97.97692,25.404225 96.683495,26.1258614 94.88752,25.7650432 C93.091545,25.404225 91.942045,23.6359295 92.66072,20.0988614 C93.01982,18.0413386 94.78017,12.0501341 95.10317,11.3642932 C95.42617,10.7505205 96.61177,10.8951341 97.437795,11.1838841 C98.264295,11.4726341 99.30597,12.0859295 99.234245,12.9884523 C98.91077,13.9630432 97.473895,17.8609295 96.82742,19.8821795 C95.92967,22.7696795 97.905195,23.0221568 99.018595,20.2429977 C99.557245,18.9438614 101.38932,11.869725 101.676695,11.3642932 C101.96407,10.7505205 103.221395,10.8951341 104.08352,11.1838841 C104.909545,11.4726341 105.915595,12.0859295 105.879495,12.9884523 C105.51992,13.9630432 104.08352,17.8609295 103.47267,19.8821795 C102.574445,22.7696795 103.796145,23.2025659 105.484295,19.9542477 C105.843395,19.2326114 106.238595,18.4384295 106.597695,17.6084523 C107.10072,16.7059295 108.681045,17.3917705 108.42977,18.3300886" id="Fill-14" fill="#FFFFFF"></path>
                    <path d="M110.90661,22.0475659 C112.450835,23.671725 115.10941,22.3725886 114.35511,20.4959523 C113.92381,19.1600659 111.948285,17.5359068 110.94271,16.4534523 C110.583135,17.3554977 110.224035,18.6188386 109.72101,19.8459068 C109.97276,21.0009068 110.439685,21.5784068 110.90661,22.0475659 M120.78471,18.2938159 C120.102135,20.0625886 119.24001,22.0112932 118.48571,23.1304977 C117.30011,24.7909295 115.25286,26.0537932 113.20561,25.8375886 C110.69096,25.8013159 108.499785,24.1408841 107.67376,22.3000432 C107.134635,22.1559068 106.811635,21.2538614 107.02681,20.7484295 C108.03286,18.9075886 109.39801,14.2875886 109.433635,9.63179318 C109.505835,9.01802045 113.636435,9.41511136 113.78036,11.869725 C113.52861,12.2305432 112.73821,13.0605205 112.41521,13.4213386 C113.38516,14.5763386 116.72536,17.2471568 117.982685,19.8459068 C118.34226,19.1237932 118.70136,18.3663614 119.06046,17.5721795 C119.563485,16.6696568 121.03646,17.3554977 120.78471,18.2938159" id="Fill-16" fill="#FFFFFF"></path>
                    <path d="M124.052378,17.5360977 C124.986228,17.9331886 125.812252,17.5360977 126.458727,16.1648932 C127.069577,14.9373477 127.141302,13.8906886 126.746103,13.6740068 C125.956177,13.5298705 124.914028,14.8290068 124.052378,17.5360977 M132.673153,18.366075 C131.990578,20.098575 131.056727,22.0114841 130.338527,23.1302114 C127.213028,28.183575 118.304878,26.1260523 119.885678,18.0415295 C120.388228,15.6231886 120.999078,13.9627568 122.220303,12.4832114 C124.519303,10.029075 129.189028,10.9311205 129.871128,12.0498477 C130.338527,12.7356886 130.122878,14.6128023 129.512028,16.1286205 C128.686003,18.1856659 126.890028,21.1815068 123.728903,20.7844159 C123.549353,23.3468932 127.859978,23.9606659 129.835503,19.9544386 C130.194603,19.232325 130.589802,18.4386205 130.913278,17.6444386 C131.451928,16.7419159 132.924903,17.4277568 132.673153,18.366075" id="Fill-18" fill="#FFFFFF"></path>
                </g>
            </g>
        </g>
    </g>
</svg>