<?xml version="1.0" encoding="UTF-8"?>
<svg width="120px" height="24px" viewBox="0 0 120 24" version="1.1" xmlns="http://www.w3.org/2000/svg" xmlns:xlink="http://www.w3.org/1999/xlink">
    <!-- Generator: Sketch 52.2 (67145) - http://www.bohemiancoding.com/sketch -->
    <title>ナビゲーションロゴ</title>
    <desc>Created with Sketch.</desc>
    <defs>
        <polygon id="path-1" points="0.0215143394 13.7142857 14.832694 13.7142857 14.832694 0.34561133 0.0215143394 0.34561133"></polygon>
        <polygon id="path-3" points="0.143742911 13.7142857 14.9549226 13.7142857 14.9549226 0.34561133 0.143742911 0.34561133"></polygon>
    </defs>
    <g id="Page-1" stroke="none" stroke-width="1" fill="none" fill-rule="evenodd">
        <g id="1024" transform="translate(-476.000000, -479.000000)">
            <g id="ナビゲーション" transform="translate(0.000000, 460.000000)">
                <g id="Group" transform="translate(193.000000, 19.000000)">
                    <g id="ナビゲーションロゴ" transform="translate(283.000000, 0.000000)">
                        <g id="Group-3" transform="translate(0.000000, 0.098271)" fill="#DDC903">
                            <path d="M7.48212857,11.1109714 C11.8248429,10.7869714 15.9734143,4.56454286 12.8619857,3.94868571 C12.2787,3.8514 9.84784286,4.1754 9.23198571,4.24011429 C9.00527143,5.30982857 8.22741429,8.22668571 7.48212857,11.1109714 M6.3477,15.4215429 C5.92641429,16.9772571 5.50512857,18.4682571 5.18112857,19.6026857 C8.45412857,20.0561143 11.9221286,19.6026857 12.0194143,17.7876857 C12.0841286,16.1021143 8.90841429,15.3568286 6.3477,15.4215429 M15.1629857,18.6949714 C14.1584143,22.2598286 8.51927143,24.7232571 0.611271429,21.9358286 C-0.749871429,21.2226857 0.384557143,18.4031143 1.84298571,18.7275429 C2.97741429,14.2545429 4.95441429,6.57368571 5.44041429,4.75868571 C4.14398571,4.95325714 3.00955714,5.21254286 2.3937,5.3424 C1.77784286,4.75868571 1.68055714,2.3604 2.5557,1.51782857 C10.1722714,-0.199885714 17.2051286,-0.556457143 17.3024143,3.91611429 C17.3671286,7.87011429 14.4177,11.6295429 11.1121286,13.0879714 C13.5429857,13.8336857 16.0059857,15.6161143 15.1629857,18.6949714" id="Fill-1"></path>
                        </g>
                        <g id="Group-6" transform="translate(18.000000, 9.526843)">
                            <mask id="mask-2" fill="white">
                                <use xlink:href="#path-1"></use>
                            </mask>
                            <g id="Clip-5"></g>
                            <path d="M6.30081429,3.91877143 C6.00895714,4.95591429 6.81938571,5.40977143 7.98638571,5.40977143 C8.11581429,4.08077143 7.01395714,3.33548571 6.30081429,3.91877143 M7.95381429,7.58134286 C6.20395714,7.64562857 4.64824286,6.99762857 4.16181429,5.63648571 C2.99524286,7.38634286 3.02738571,9.84977143 4.90752857,10.3683429 C6.46281429,10.2710571 7.53252857,9.0072 7.95381429,7.58134286 M14.7599571,2.81691429 C14.2088143,4.59934286 12.5558143,5.8632 11.3566714,6.57634286 C11.0326714,10.4009143 8.18052857,14.4196286 3.74052857,13.6092 C-2.70904286,12.4426286 -0.310757143,-0.748371429 7.40267143,0.418628571 C9.7041,0.742628571 10.9358143,2.42777143 11.2919571,4.50205714 C11.9403857,4.30748571 13.3336714,3.46491429 13.8848143,2.42777143 C14.2413857,1.7472 15.0839571,1.84448571 14.7599571,2.81691429" id="Fill-4" fill="#DDC903" mask="url(#mask-2)"></path>
                        </g>
                        <path d="M44.1992571,16.4596714 C43.5838286,18.0479571 42.8055429,19.8303857 42.0928286,20.8023857 C40.8936857,22.4553857 39.4999714,23.8169571 37.8148286,22.9739571 C36.4211143,22.2933857 36.1618286,20.1218143 36.8424,17.4968143 L36.8424,17.5615286 C35.9346857,19.4416714 34.4115429,22.6825286 34.1522571,22.9413857 C33.0829714,23.6545286 30.8141143,22.9413857 30.8466857,21.6775286 C31.0086857,19.7652429 33.5042571,10.8205286 33.6011143,10.2046714 C34.2174,9.75081429 36.4211143,10.2368143 36.6478286,11.4038143 C36.4211143,12.4083857 35.1894,16.4271 34.9301143,17.2701 C35.4161143,16.3302429 37.4904,11.7603857 38.0741143,10.6259571 C38.3655429,10.0748143 39.1112571,9.8481 39.9212571,9.88024286 C41.0878286,9.88024286 42.3516857,10.3988143 42.3195429,11.1771 C42.0928286,11.8898143 40.0832571,16.7515286 39.7592571,17.8533857 C38.9814,20.4462429 40.1158286,20.8675286 41.6389714,17.9181 C41.9629714,17.2701 42.3195429,16.5569571 42.6114,15.8116714 C43.0974,15.0012429 44.4259714,15.6171 44.1992571,16.4596714" id="Fill-7" fill="#DDC903"></path>
                        <path d="M70.3837714,2.26427143 C68.0827714,10.5935571 65.8464857,19.6681286 64.9066286,22.7474143 C64.3554857,23.7519857 61.6332,23.0062714 61.6657714,22.2609857 C61.9572,20.9645571 62.7676286,17.7884143 63.6427714,14.4177 C62.4757714,14.4502714 61.2766286,14.4828429 60.1426286,14.4828429 C59.1054857,18.2422714 58.1330571,21.9044143 57.9384857,22.7148429 C57.3873429,23.6868429 54.6329143,22.9415571 54.6650571,22.1962714 C54.7949143,21.5157 55.7673429,17.9182714 56.6746286,14.4828429 C56.3180571,14.4828429 56.0262,14.4502714 55.7994857,14.4502714 C54.3736286,14.4502714 54.2437714,11.5334143 55.4103429,11.2741286 C56.0262,11.2415571 56.7393429,11.1768429 57.5497714,11.1447 C58.1977714,8.71384286 58.7163429,6.67212857 58.8462,6.25041429 C59.3647714,3.98198571 57.5819143,3.91727143 52.3966286,4.75984286 C50.9382,4.98655714 51.4563429,1.5837 52.7853429,1.16241429 C59.2674857,-0.361157143 63.5454857,1.4217 63.0269143,3.8847 C62.6703429,5.24584286 61.8924857,8.03327143 61.0820571,11.0795571 C62.3463429,11.0474143 63.5454857,11.0474143 64.5174857,11.0148429 C65.5224857,7.15812857 66.4297714,3.59327143 66.6890571,2.55612857 C67.1429143,1.06512857 70.6756286,0.481842857 70.3837714,2.26427143" id="Fill-9" fill="#DDC903"></path>
                        <g id="Group-13" transform="translate(69.857143, 9.526843)">
                            <mask id="mask-4" fill="white">
                                <use xlink:href="#path-3"></use>
                            </mask>
                            <g id="Clip-12"></g>
                            <path d="M6.42304286,3.91877143 C6.13118571,4.95591429 6.94161429,5.40977143 8.10861429,5.40977143 C8.23804286,4.08077143 7.13618571,3.33548571 6.42304286,3.91877143 M8.07604286,7.58134286 C6.32575714,7.64562857 4.77004286,6.99762857 4.28404286,5.63648571 C3.11747143,7.38634286 3.14961429,9.84977143 5.02975714,10.3683429 C6.58504286,10.2710571 7.65475714,9.0072 8.07604286,7.58134286 M14.8821857,2.81691429 C14.3310429,4.59934286 12.6780429,5.8632 11.4789,6.57634286 C11.1549,10.4009143 8.30275714,14.4196286 3.86275714,13.6092 C-2.58681429,12.4426286 -0.188528571,-0.748371429 7.5249,0.418628571 C9.8259,0.742628571 11.0576143,2.42777143 11.4141857,4.50205714 C12.0626143,4.30748571 13.4559,3.46491429 14.0070429,2.42777143 C14.3636143,1.7472 15.2061857,1.84448571 14.8821857,2.81691429" id="Fill-11" fill="#DDC903" mask="url(#mask-4)"></path>
                        </g>
                        <path d="M97.8313714,16.4596714 C97.2480857,18.0479571 96.3729429,19.8303857 95.6598,20.8023857 C94.4285143,22.4553857 93.0022286,23.6871 91.2198,23.0712429 C90.3446571,22.7798143 89.7613714,22.0666714 89.5346571,21.0616714 C88.4002286,22.8119571 87.2332286,23.4599571 85.6128,23.1359571 C83.9923714,22.8119571 82.9552286,21.2241 83.6036571,18.0479571 C83.9276571,16.2003857 85.5159429,10.8205286 85.8073714,10.2046714 C86.0988,9.65352857 87.1685143,9.78338571 87.9138,10.0426714 C88.6595143,10.3019571 89.5993714,10.8526714 89.5346571,11.6631 C89.2428,12.5382429 87.9463714,16.0383857 87.3630857,17.8533857 C86.5530857,20.4462429 88.3355143,20.6729571 89.3400857,18.1773857 C89.8260857,17.0108143 91.4790857,10.6585286 91.7383714,10.2046714 C91.9976571,9.65352857 93.1320857,9.78338571 93.9099429,10.0426714 C94.6552286,10.3019571 95.5629429,10.8526714 95.5303714,11.6631 C95.2059429,12.5382429 93.9099429,16.0383857 93.3588,17.8533857 C92.5483714,20.4462429 93.6506571,20.8349571 95.1738,17.9181 C95.4978,17.2701 95.8543714,16.5569571 96.1783714,15.8116714 C96.6322286,15.0012429 98.0580857,15.6171 97.8313714,16.4596714" id="Fill-14" fill="#DDC903"></path>
                        <path d="M100.066114,19.7978143 C101.4594,21.2562429 103.858114,20.0896714 103.177543,18.4045286 C102.7884,17.2049571 101.005971,15.7465286 100.098686,14.7745286 C99.7742571,15.5845286 99.4502571,16.7189571 98.9964,17.8208143 C99.2235429,18.8579571 99.6448286,19.3765286 100.066114,19.7978143 M108.978686,16.4271 C108.362829,18.0153857 107.584971,19.7652429 106.9044,20.7702429 C105.834686,22.2612429 103.987543,23.3952429 102.1404,23.2011 C99.8715429,23.1685286 97.8945429,21.6775286 97.1492571,20.0245286 C96.6628286,19.8951 96.3714,19.0851 96.5655429,18.6312429 C97.4732571,16.9782429 98.7049714,12.8296714 98.7371143,8.64895714 C98.8022571,8.09781429 102.529114,8.45438571 102.658971,10.6585286 C102.431829,10.9825286 101.718686,11.7278143 101.427257,12.0518143 C102.3024,13.0889571 105.316114,15.4872429 106.450543,17.8208143 C106.774971,17.1723857 107.098971,16.4922429 107.422971,15.7791 C107.876829,14.9686714 109.205829,15.5845286 108.978686,16.4271" id="Fill-16" fill="#DDC903"></path>
                        <path d="M111.926957,15.7467 C112.769529,16.1032714 113.514814,15.7467 114.0981,14.5154143 C114.649243,13.4131286 114.713957,12.4732714 114.357386,12.2787 C113.644671,12.1492714 112.704386,13.3158429 111.926957,15.7467 M119.7051,16.4919857 C119.089243,18.0477 118.246671,19.7654143 117.598671,20.7699857 C114.778671,25.3077 106.741243,23.4601286 108.167529,16.2005571 C108.620957,14.0289857 109.1721,12.5379857 110.273957,11.2094143 C112.348243,9.0057 116.561529,9.8157 117.176957,10.8202714 C117.598671,11.4361286 117.4041,13.1217 116.852957,14.4828429 C116.107671,16.3299857 114.487243,19.0201286 111.6351,18.6635571 C111.4731,20.9645571 115.362386,21.5157 117.144814,17.9182714 C117.468814,17.2698429 117.825386,16.5571286 118.117243,15.8439857 C118.603243,15.0335571 119.932243,15.6494143 119.7051,16.4919857" id="Fill-18" fill="#DDC903"></path>
                    </g>
                </g>
            </g>
        </g>
    </g>
</svg>